<svg xmlns="http://www.w3.org/2000/svg" viewBox="0 0 1440 320"><path fill="#58bcf1" fill-opacity="1" d="M0,160L8.9,170.7C17.8,181,36,203,53,192C71.1,181,89,139,107,138.7C124.4,139,142,181,160,181.3C177.8,181,196,139,213,144C231.1,149,249,203,267,192C284.4,181,302,107,320,74.7C337.8,43,356,53,373,96C391.1,139,409,213,427,229.3C444.4,245,462,203,480,176C497.8,149,516,139,533,122.7C551.1,107,569,85,587,106.7C604.4,128,622,192,640,186.7C657.8,181,676,107,693,74.7C711.1,43,729,53,747,101.3C764.4,149,782,235,800,277.3C817.8,320,836,320,853,320C871.1,320,889,320,907,293.3C924.4,267,942,213,960,186.7C977.8,160,996,160,1013,138.7C1031.1,117,1049,75,1067,48C1084.4,21,1102,11,1120,48C1137.8,85,1156,171,1173,208C1191.1,245,1209,235,1227,192C1244.4,149,1262,75,1280,90.7C1297.8,107,1316,213,1333,250.7C1351.1,288,1369,256,1387,218.7C1404.4,181,1422,139,1431,117.3L1440,96L1440,0L1431.1,0C1422.2,0,1404,0,1387,0C1368.9,0,1351,0,1333,0C1315.6,0,1298,0,1280,0C1262.2,0,1244,0,1227,0C1208.9,0,1191,0,1173,0C1155.6,0,1138,0,1120,0C1102.2,0,1084,0,1067,0C1048.9,0,1031,0,1013,0C995.6,0,978,0,960,0C942.2,0,924,0,907,0C888.9,0,871,0,853,0C835.6,0,818,0,800,0C782.2,0,764,0,747,0C728.9,0,711,0,693,0C675.6,0,658,0,640,0C622.2,0,604,0,587,0C568.9,0,551,0,533,0C515.6,0,498,0,480,0C462.2,0,444,0,427,0C408.9,0,391,0,373,0C355.6,0,338,0,320,0C302.2,0,284,0,267,0C248.9,0,231,0,213,0C195.6,0,178,0,160,0C142.2,0,124,0,107,0C88.9,0,71,0,53,0C35.6,0,18,0,9,0L0,0Z"></path></svg>